{"title":"Chelsea S01E01 720p WEBRip x264.mp4","uid":14590899,"size":588280884,"categoryP":"video","categoryS":"hd___tv_shows","magnet":"?xt=urn:btih:fdb0bda094dae602ed63f4deeebd81920ac7206d&amp;dn=Chelsea+S01E01+720p+WEBRip+x264.mp4&amp;tr=udp%3A%2F%2Ftracker.leechers-paradise.org%3A6969&amp;tr=udp%3A%2F%2Fzer0day.ch%3A1337&amp;tr=udp%3A%2F%2Fopen.demonii.com%3A1337&amp;tr=udp%3A%2F%2Ftracker.coppersurfer.tk%3A6969&amp;tr=udp%3A%2F%2Fexodus.desync.com%3A6969","seeders":2,"leechers":0,"uploader":"TheRival","files":1,"time":1462973601,"description":"Screens: \nhttp://extraimago.com/image/abNJ \nhttp://extraimago.com/image/abNK \nhttp://extraimago.com/image/abNZ \nhttp://extraimago.com/image/abNe\r\n\r\nVideo\r\nID : 1\r\nFormat : AVC\r\nFormat/Info : Advanced Video Codec\r\nFormat profile :   \r\nFormat settings, CABAC : Yes\r\nFormat settings, ReFrames : 1 frame\r\nFormat settings, GOP : M=3, N=24\r\nMuxing mode : Container   \r\nCodec ID : avc1\r\nCodec ID/Info : Advanced Video Coding\r\nDuration : 37mn 6s\r\nSource duration : 37mn 6s\r\nBit rate mode : Variable\r\nBit rate : 1 980 Kbps\r\nMaximum bit rate : 3 000 Kbps\r\nWidth : 1 280 pixels\r\nHeight : 720 pixels\r\nDisplay aspect ratio : 16:9\r\nFrame rate mode : Constant\r\nFrame rate : 29.970 (30000/1001) fps\r\nColor space : YUV\r\nChroma subsampling : 4:2:0\r\nBit depth : 8 bits\r\nScan type : Progressive\r\nBits/(Pixel*Frame) : 0.072\r\nStream size : 525 MiB (94%)\r\nSource stream size : 525 MiB (94%)\r\nLanguage : English\r\n\r\nAudio\r\nID : 2\r\nFormat : AAC\r\nFormat/Info : Advanced Audio Codec\r\nFormat profile : LC\r\nCodec ID : 40\r\nDuration : 37mn 6s\r\nBit rate mode : Constant\r\nBit rate : 128 Kbps\r\nChannel(s) : 2 channels\r\nChannel positions : Front: L R\r\nSampling rate : 48.0 KHz\r\nFrame rate : 46.875 fps (1024 spf)\r\nCompression mode : Lossy\r\nStream size : 34.0 MiB (6%)\r\nTitle : Stereo\r\nLanguage : English\r\nDefault : Yes\r\nAlternate group : 1","torrent":{"xt":"urn:btih:fdb0bda094dae602ed63f4deeebd81920ac7206d","amp;dn":"Chelsea+S01E01+720p+WEBRip+x264.mp4","amp;tr":["udp%3A%2F%2Ftracker.leechers-paradise.org%3A6969","udp%3A%2F%2Fzer0day.ch%3A1337","udp%3A%2F%2Fopen.demonii.com%3A1337","udp%3A%2F%2Ftracker.coppersurfer.tk%3A6969","udp%3A%2F%2Fexodus.desync.com%3A6969"],"infoHash":"fdb0bda094dae602ed63f4deeebd81920ac7206d","infoHashBuffer":{"type":"Buffer","data":[253,176,189,160,148,218,230,2,237,99,244,222,238,189,129,146,10,199,32,109]},"announce":[],"urlList":[]}}